<svg width="27" height="26" viewBox="0 0 27 26" fill="none" xmlns="http://www.w3.org/2000/svg">
<path fill-rule="evenodd" clip-rule="evenodd" d="M13.5 0C6.05 0 0 5.81731 0 12.9808C0 20.1442 6.05 25.9615 13.5 25.9615C14.03 25.9615 14.551 25.925 15.066 25.8673L15.082 25.8827L15.1 25.8635C21.796 25.101 27 19.6231 27 12.9808C27 6.33942 21.796 0.865385 15.102 0.100962C15.085 0.0875 15.07 0.0721155 15.052 0.058654V0.0528847L15.022 0.0884615C14.521 0.0336539 14.014 0 13.5 0ZM13 0.985577V5.76923H8.66C9.577 3.90096 10.834 2.28077 12.336 1.01827C12.555 0.999038 12.778 0.994231 13 0.985577ZM14 0.985577C14.223 0.995192 14.447 0.998077 14.666 1.01827C16.171 2.28077 17.431 3.89808 18.35 5.76923H14V0.985577ZM10.576 1.30481C9.31172 2.61824 8.2873 4.12762 7.546 5.76923H3.515C5.25713 3.5364 7.75351 1.95761 10.576 1.30481ZM16.422 1.30481C19.2453 1.95713 21.7434 3.53597 23.486 5.76923H19.46C18.7167 4.12707 17.6889 2.61764 16.422 1.30481ZM2.836 6.73077H7.146C6.44326 8.58143 6.06086 10.5304 6.014 12.5H1.025C1.10535 10.4597 1.72953 8.47339 2.836 6.73077ZM8.238 6.73077H13V12.5H7.014C7.06888 10.523 7.48313 8.57047 8.238 6.73077ZM14 6.73077H18.77C19.525 8.57044 19.9392 10.523 19.994 12.5H14V6.73077ZM19.86 6.73077H24.164C25.2705 8.47339 25.8937 10.4597 25.974 12.5H20.994C20.9462 10.5302 20.5628 8.58126 19.859 6.73077H19.86ZM1.024 13.4615H6.013C6.05979 15.4312 6.44219 17.3801 7.145 19.2308H2.834C1.72809 17.488 1.10527 15.5017 1.025 13.4615H1.024ZM7.013 13.4615H13V19.2308H8.238C7.48315 17.3911 7.0689 15.4385 7.014 13.4615H7.013ZM13.999 13.4615H19.968C19.862 15.2721 19.348 17.2625 18.45 19.2308H14L13.999 13.4615ZM20.969 13.4615H25.974C25.8937 15.5017 25.2709 17.488 24.165 19.2308H19.536C20.379 17.2788 20.871 15.3038 20.969 13.4615ZM3.515 20.1923H7.548C8.28932 21.8339 9.31373 23.3433 10.578 24.6567C7.75428 24.0048 5.25565 22.4259 3.513 20.1923H3.515ZM8.661 20.1923H13.001V24.976C12.78 24.9663 12.557 24.9625 12.339 24.9433C10.835 23.6808 9.579 22.0625 8.661 20.1923ZM14.001 20.1923H17.964C17.0719 21.9163 15.9406 23.5158 14.601 24.9471C14.403 24.9644 14.201 24.9683 14.001 24.976V20.1923ZM19.089 20.1923H23.487C21.6797 22.5149 19.0581 24.129 16.108 24.7356C17.2872 23.3417 18.2874 21.8163 19.087 20.1923H19.089Z" fill="#FB04FE"/>
</svg>
